<?xml version="1.0" standalone="no"?><!DOCTYPE svg PUBLIC "-//W3C//DTD SVG 1.1//EN" "http://www.w3.org/Graphics/SVG/1.1/DTD/svg11.dtd"><svg t="1577881071448" class="icon" viewBox="0 0 1025 1024" version="1.1" xmlns="http://www.w3.org/2000/svg" p-id="36077" xmlns:xlink="http://www.w3.org/1999/xlink" width="200.1953125" height="200"><defs><style type="text/css"></style></defs><path d="M968.028 573.999c24-27.33 36-64.33 36-111.007 0-13.332-1.5-25.832-4.51-37.502-3.01-11.667-7.18-22.165-12.51-31.485-3.33-5.335-7.5-10.337-12.51-15.01-5.015-4.67-10.18-8.5-15.49-11.487-5.31-2.985-11.145-5.322-17.5-7.007-6.36-1.685-12.86-2.518-19.49-2.495l-134.01 0c72.66-132.667 90.66-231.662 54.01-296.982-11.325-20.672-26.825-36.01-46.49-46.015C775.858 5.002 756.688 0 738.023 0c-3.325 0-6.495 0.5-9.505 1.505-3.01 1.002-5.67 2.505-8 4.51-2.325 2.005-4.16 4.342-5.5 7.007-1.35 2.667-2.35 5.665-3.01 8.992-1.345 13.332-4.68 27.337-10.015 42.015-5.335 14.677-12.175 29.515-20.515 44.51-8.34 14.997-18 29.995-28.99 44.99-10.985 14.997-23.315 29.995-36.99 44.992-13.67 14.997-28.51 29.832-44.51 44.51-79.997 71.997-170.33 124.997-270.999 159.002-5.995-12.67-15.327-23.167-27.997-31.487-12.672-8.317-26.335-12.49-40.992-12.51L76.99 358.036c-21.332 0-39.497 7.497-54.495 22.495S0 413.694 0 435.026l0 460.976c0 21.335 7.497 39.495 22.495 54.495 14.997 14.995 33.162 22.49 54.495 22.49l154.01 0c10.005 0 19.84-2.16 29.505-6.49 9.662-4.33 17.992-10.17 24.99-17.505 6.997-7.34 12.5-15.67 16.512-24.995 31.337 4.015 59.005 9.175 83.005 15.49 23.997 6.315 41.16 11.82 51.485 16.51 10.325 4.695 23.83 11.36 40.512 20 20.01 11.33 36.51 19.5 49.5 24.51 12.99 5.015 35.33 10.18 67.01 15.49 31.68 5.31 69.51 7.98 113.5 8 18.665 0 36.33-2.335 52.99-7.01 16.66-4.67 31.655-11.335 44.99-20 26-17.34 42-40.34 48-68.99 20.67-8.66 38-27.325 51.995-55.995 14.675-29.995 22.015-59.995 22.015-90.015l0-8c0-2-0.33-4.01-0.99-6.015 4.67-3.325 9-7.155 12.99-11.485 3.99-4.33 7.82-9.165 11.49-14.5 3.67-5.33 6.835-11.335 9.5-18.01 15.34-29.335 23.01-60.33 23.01-92.99 0-21.995-4-40-12-54.015-1.345-1.345-2.02-2.345-2.02-3.01l-0.99 0L968.028 573.999zM230.072 921.988 77.085 921.988c-3.327 0-6.665-0.835-10.015-2.5-3.35-1.66-6.187-3.5-8.512-5.5-2.325-2.01-4.16-4.675-5.502-8-1.345-3.33-2.017-6.67-2.017-10.02L51.039 434.994c0-6.677 2.497-12.512 7.487-17.505 4.992-4.99 11.157-7.487 18.497-7.487l152.987 0c7.337 0 13.502 2.497 18.495 7.487 4.99 4.992 7.487 10.827 7.487 17.505l0 460.974c0 13.335-6.337 21.665-19.007 24.99-2.667 0-5.002 0.335-7.007 0.995L230.072 921.988zM939.038 525.999c-7.335 13.995-13.67 20.99-19.005 20.99-7.335 0-13.505 2.5-18.495 7.49s-7.49 10.995-7.49 18.015c0 7.015 2.5 13.025 7.49 18.015s11.16 7.49 18.495 7.49c2.665 0 4.675 1.33 6.015 4 3.33 6.675 4.99 16.34 4.99 28.99 0 24.66-5.33 48.33-16 71.005-9.34 18.665-17.67 27.995-24.99 27.995-4.67 0-9 1.005-12.99 3.01-3.99 2.01-7.16 5.005-9.5 8.99-2.35 3.99-3.51 8.32-3.49 12.995 0 3.325 0.5 6.325 1.5 8.99 1.005 2.665 2.34 5.005 4 7.01 1.67 2.005 3.83 4.01 6.5 6.015 0.66 9.34-1.175 23.01-5.505 40.99-4.33 17.985-11.165 33.65-20.515 47.01-8 11.325-14.99 16.99-20.99 16.99-4.67 0-9 1-12.99 3.01-3.99 2-7.16 5-9.5 8.99-2.35 3.99-3.51 8.32-3.49 12.99 0 21.33-9.505 37.66-28.51 48.99-19.01 11.33-41.505 16.99-67.49 16.99-40 0-74-2.165-102.01-6.495-28.01-4.33-47.84-8.83-59.49-13.505-11.645-4.67-26.48-12.01-44.507-22.01-18.005-9.35-32.842-16.685-44.51-22.02-11.67-5.33-30.837-11.5-57.502-18.495-26.667-6.995-57.332-12.83-91.997-17.505L307.062 453.936c111.335-36.67 210.667-94.332 298.007-172.987 83.325-75.325 134.32-150.66 152.985-226.007 18.005 5.332 31.34 15.667 40 31.007 4.675 9.342 7.84 20.51 9.505 33.502 1.66 12.992 1.16 30.655-1.505 52.99s-11.165 50.505-25.505 84.51c-14.335 34.002-34.16 72.007-59.485 114.012-2.005 4.01-3.005 8.34-3.005 12.99 0 4.652 1 8.982 3.005 12.992 4.675 8.662 12.01 12.992 22.015 12.992l187 0 2.02 2.015c1.34 0 2.505 0.33 3.49 0.992 0.98 0.66 1.98 1.492 3.005 2.495s1.855 2.005 2.495 3.007c0.64 1.003 1.64 2.165 3.01 3.49 2.665 4.67 4.83 10.505 6.495 17.502 1.665 6.997 2.495 14.825 2.495 23.487 0 23.337-4.67 44.34-14.015 63.005L939.038 525.999z" p-id="36078" fill="#1296db"></path></svg>